<svg xmlns="http://www.w3.org/2000/svg" xmlns:xlink="http://www.w3.org/1999/xlink" version="1.1" x="0px" y="0px" viewBox="0 0 100 125" enable-background="new 0 0 100 100" xml:space="preserve"><path d="M50,7.932C26.803,7.932,7.932,26.803,7.932,50c0,23.196,18.872,42.068,42.068,42.068c23.196,0,42.068-18.872,42.068-42.068  C92.068,26.803,73.196,7.932,50,7.932z M50,87.068c-20.439,0-37.068-16.629-37.068-37.068S29.561,12.932,50,12.932  S87.068,29.561,87.068,50S70.439,87.068,50,87.068z M36.575,42.754c2.229,0,4.326-0.869,5.903-2.447  c0.781-0.781,0.781-2.048,0-2.829c-0.782-0.78-2.048-0.781-2.829,0c-0.822,0.822-1.914,1.275-3.074,1.275s-2.252-0.453-3.074-1.275  c-0.781-0.781-2.047-0.781-2.829,0c-0.781,0.781-0.781,2.047,0,2.829C32.249,41.886,34.345,42.754,36.575,42.754z M63.136,42.754  c2.229,0,4.326-0.869,5.903-2.447c0.781-0.781,0.781-2.048,0-2.829c-0.781-0.78-2.049-0.781-2.828,0  c-0.822,0.822-1.914,1.275-3.075,1.275c-1.16,0-2.252-0.453-3.074-1.275c-0.781-0.781-2.047-0.781-2.828,0  c-0.781,0.781-0.781,2.047,0,2.829C58.811,41.886,60.907,42.754,63.136,42.754z M50.017,50.524  c-15.604,0-22.711,8.721-22.711,16.823c0,1.104,0.896,2,2,2h41.291c0.007,0.001,0.015,0.001,0.02,0c1.105,0,2-0.896,2-2  c0-0.104-0.008-0.207-0.022-0.307C72.417,59.026,65.335,50.524,50.017,50.524z M31.51,65.348  c1.136-5.528,7.033-10.823,18.506-10.823c8.241,0,17.062,3.403,18.404,10.823H31.51z"/><text x="0" y="115" fill="#000000" font-size="5px" font-weight="bold" font-family="'Helvetica Neue', Helvetica, Arial-Unicode, Arial, Sans-serif">Created by Rodolfo Alvarez</text><text x="0" y="120" fill="#000000" font-size="5px" font-weight="bold" font-family="'Helvetica Neue', Helvetica, Arial-Unicode, Arial, Sans-serif">from the Noun Project</text></svg>